HIERARCHY
ROOT Hips
{
  OFFSET 365.14 88.179 197.519
  CHANNELS 6 Xposition Yposition Zposition Zrotation Xrotation Yrotation
  JOINT RightUpLeg
  {
    OFFSET -9.25084 -1.53971 -0.0324706
    CHANNELS 3 Zrotation Xrotation Yrotation
    JOINT RightLeg
    {
      OFFSET 0.0147984 -41.8767 0.0743683
      CHANNELS 3 Zrotation Xrotation Yrotation
      JOINT RightFoot
      {
        OFFSET 0.58129 -42.7665 -0.0966173
        CHANNELS 3 Zrotation Xrotation Yrotation
        End Site
        {
          OFFSET 0 -7.69 17.5
        }
      }
    }
  }
  JOINT LeftUpLeg
  {
    OFFSET 9.27183 -1.63567 0.0208533
    CHANNELS 3 Zrotation Xrotation Yrotation
    JOINT LeftLeg
    {
      OFFSET 0.0380064 -41.894 -0.0332375
      CHANNELS 3 Zrotation Xrotation Yrotation
      JOINT LeftFoot
      {
        OFFSET -0.00137207 -40.7578 0.276477
        CHANNELS 3 Zrotation Xrotation Yrotation
        End Site
        {
          OFFSET 0 -7.69 17.5
        }
      }
    }
  }
  JOINT Spine
  {
    OFFSET 0.0273715 14.2953 0.0132618
    CHANNELS 3 Zrotation Xrotation Yrotation
    JOINT Spine1
    {
      OFFSET 0.0356242 9.71545 0.0178671
      CHANNELS 3 Zrotation Xrotation Yrotation
      JOINT Spine2
      {
        OFFSET 0.0275401 10.1205 0.00234803
        CHANNELS 3 Zrotation Xrotation Yrotation
        JOINT Spine3
        {
          OFFSET 0.0388833 9.71499 0.00573168
          CHANNELS 3 Zrotation Xrotation Yrotation
          JOINT Neck
          {
            OFFSET 0.0812761 10.3796 0.11061
            CHANNELS 3 Zrotation Xrotation Yrotation
            JOINT Head
            {
              OFFSET 0.0694951 9.4737 0.0873993
              CHANNELS 3 Zrotation Xrotation Yrotation
              End Site
              {
                OFFSET 0 15.95 0
              }
            }
          }
          JOINT RightShoulder
          {
            OFFSET -3.16911 6.92878 0.0176909
            CHANNELS 3 Zrotation Xrotation Yrotation
            JOINT RightArm
            {
              OFFSET -12.7939 0.0472484 0.0511932
              CHANNELS 3 Zrotation Xrotation Yrotation
              JOINT RightForeArm
              {
                OFFSET -26.5086 -0.00989181 0.0576382
                CHANNELS 3 Zrotation Xrotation Yrotation
                JOINT RightHand
                {
                  OFFSET -26.0357 0.339815 -0.212656
                  CHANNELS 3 Zrotation Xrotation Yrotation
                  JOINT RightHandThumb1
                  {
                    OFFSET -2.48905 0.190105 3.12053
                    CHANNELS 3 Zrotation Xrotation Yrotation
                    JOINT RightHandThumb2
                    {
                      OFFSET -3.68274 0 0
                      CHANNELS 3 Zrotation Xrotation Yrotation
                      JOINT RightHandThumb3
                      {
                        OFFSET -2.55832 0 0
                        CHANNELS 3 Zrotation Xrotation Yrotation
                        End Site
                        {
                          OFFSET -2.194 0 0
                        }
                      }
                    }
                  }
                  JOINT RightInHandIndex
                  {
                    OFFSET -3.22368 0.508421 1.97842
                    CHANNELS 3 Zrotation Xrotation Yrotation
                    JOINT RightHandIndex1
                    {
                      OFFSET -5.21684 -0.091368 0.999158
                      CHANNELS 3 Zrotation Xrotation Yrotation
                      JOINT RightHandIndex2
                      {
                        OFFSET -3.61937 0 0
                        CHANNELS 3 Zrotation Xrotation Yrotation
                        JOINT RightHandIndex3
                        {
                          OFFSET -2.0521 0 0
                          CHANNELS 3 Zrotation Xrotation Yrotation
                          End Site
                          {
                            OFFSET -1.805 0 0
                          }
                        }
                      }
                    }
                  }
                  JOINT RightInHandMiddle
                  {
                    OFFSET -3.38211 0.517263 0.756737
                    CHANNELS 3 Zrotation Xrotation Yrotation
                    JOINT RightHandMiddle1
                    {
                      OFFSET -5.17411 -0.084 0.313895
                      CHANNELS 3 Zrotation Xrotation Yrotation
                      JOINT RightHandMiddle2
                      {
                        OFFSET -3.94947 0 0
                        CHANNELS 3 Zrotation Xrotation Yrotation
                        JOINT RightHandMiddle3
                        {
                          OFFSET -2.47579 0 0
                          CHANNELS 3 Zrotation Xrotation Yrotation
                          End Site
                          {
                            OFFSET -1.975 0 0
                          }
                        }
                      }
                    }
                  }
                  JOINT RightInHandRing
                  {
                    OFFSET -3.36516 0.537895 -0.128947
                    CHANNELS 3 Zrotation Xrotation Yrotation
                    JOINT RightHandRing1
                    {
                      OFFSET -4.63474 -0.022105 -0.478947
                      CHANNELS 3 Zrotation Xrotation Yrotation
                      JOINT RightHandRing2
                      {
                        OFFSET -3.44238 0 0
                        CHANNELS 3 Zrotation Xrotation Yrotation
                        JOINT RightHandRing3
                        {
                          OFFSET -2.3881 0 0
                          CHANNELS 3 Zrotation Xrotation Yrotation
                          End Site
                          {
                            OFFSET -1.857 0 0
                          }
                        }
                      }
                    }
                  }
                  JOINT RightInHandPinky
                  {
                    OFFSET -3.16105 0.469368 -1.20179
                    CHANNELS 3 Zrotation Xrotation Yrotation
                    JOINT RightHandPinky1
                    {
                      OFFSET -4.14105 -0.022105 -1.09053
                      CHANNELS 3 Zrotation Xrotation Yrotation
                      JOINT RightHandPinky2
                      {
                        OFFSET -2.75653 0 0
                        CHANNELS 3 Zrotation Xrotation Yrotation
                        JOINT RightHandPinky3
                        {
                          OFFSET -1.74189 0 0
                          CHANNELS 3 Zrotation Xrotation Yrotation
                          End Site
                          {
                            OFFSET -1.645 0 0
                          }
                        }
                      }
                    }
                  }
                }
              }
            }
          }
          JOINT LeftShoulder
          {
            OFFSET 3.24184 6.89832 -0.0228965
            CHANNELS 3 Zrotation Xrotation Yrotation
            JOINT LeftArm
            {
              OFFSET 12.8376 -0.0155948 -0.0448787
              CHANNELS 3 Zrotation Xrotation Yrotation
              JOINT LeftForeArm
              {
                OFFSET 26.5019 -0.0237061 -0.00609661
                CHANNELS 3 Zrotation Xrotation Yrotation
                JOINT LeftHand
                {
                  OFFSET 25.9931 -0.0767526 0.00928659
                  CHANNELS 3 Zrotation Xrotation Yrotation
                  JOINT LeftHandThumb1
                  {
                    OFFSET 2.48905 0.190105 3.12053
                    CHANNELS 3 Zrotation Xrotation Yrotation
                    JOINT LeftHandThumb2
                    {
                      OFFSET 3.68274 0 0
                      CHANNELS 3 Zrotation Xrotation Yrotation
                      JOINT LeftHandThumb3
                      {
                        OFFSET 2.55832 0 0
                        CHANNELS 3 Zrotation Xrotation Yrotation
                        End Site
                        {
                          OFFSET 2.194 0 0
                        }
                      }
                    }
                  }
                  JOINT LeftInHandIndex
                  {
                    OFFSET 3.22368 0.508421 1.97842
                    CHANNELS 3 Zrotation Xrotation Yrotation
                    JOINT LeftHandIndex1
                    {
                      OFFSET 5.21684 -0.091368 0.999158
                      CHANNELS 3 Zrotation Xrotation Yrotation
                      JOINT LeftHandIndex2
                      {
                        OFFSET 3.61937 0 0
                        CHANNELS 3 Zrotation Xrotation Yrotation
                        JOINT LeftHandIndex3
                        {
                          OFFSET 2.0521 0 0
                          CHANNELS 3 Zrotation Xrotation Yrotation
                          End Site
                          {
                            OFFSET 1.805 0 0
                          }
                        }
                      }
                    }
                  }
                  JOINT LeftInHandMiddle
                  {
                    OFFSET 3.38211 0.517263 0.756737
                    CHANNELS 3 Zrotation Xrotation Yrotation
                    JOINT LeftHandMiddle1
                    {
                      OFFSET 5.17411 -0.084 0.313895
                      CHANNELS 3 Zrotation Xrotation Yrotation
                      JOINT LeftHandMiddle2
                      {
                        OFFSET 3.94947 0 0
                        CHANNELS 3 Zrotation Xrotation Yrotation
                        JOINT LeftHandMiddle3
                        {
                          OFFSET 2.47579 0 0
                          CHANNELS 3 Zrotation Xrotation Yrotation
                          End Site
                          {
                            OFFSET 1.975 0 0
                          }
                        }
                      }
                    }
                  }
                  JOINT LeftInHandRing
                  {
                    OFFSET 3.36516 0.537895 -0.128947
                    CHANNELS 3 Zrotation Xrotation Yrotation
                    JOINT LeftHandRing1
                    {
                      OFFSET 4.63474 -0.022105 -0.478947
                      CHANNELS 3 Zrotation Xrotation Yrotation
                      JOINT LeftHandRing2
                      {
                        OFFSET 3.44238 0 0
                        CHANNELS 3 Zrotation Xrotation Yrotation
                        JOINT LeftHandRing3
                        {
                          OFFSET 2.3881 0 0
                          CHANNELS 3 Zrotation Xrotation Yrotation
                          End Site
                          {
                            OFFSET 1.857 0 0
                          }
                        }
                      }
                    }
                  }
                  JOINT LeftInHandPinky
                  {
                    OFFSET 3.16105 0.469368 -1.20179
                    CHANNELS 3 Zrotation Xrotation Yrotation
                    JOINT LeftHandPinky1
                    {
                      OFFSET 4.14105 -0.022105 -1.09053
                      CHANNELS 3 Zrotation Xrotation Yrotation
                      JOINT LeftHandPinky2
                      {
                        OFFSET 2.75653 0 0
                        CHANNELS 3 Zrotation Xrotation Yrotation
                        JOINT LeftHandPinky3
                        {
                          OFFSET 1.74189 0 0
                          CHANNELS 3 Zrotation Xrotation Yrotation
                          End Site
                          {
                            OFFSET 1.645 0 0
                          }
                        }
                      }
                    }
                  }
                }
              }
            }
          }
        }
      }
    }
  }
}
MOTION
Frames:	6
Frame Time:	0.00833333
365.14 88.179 197.519 24.7979 12.3535 -67.8616 -13.2386 -57.0599 -10.9358 -3.23929 23.1903 -14.7554 9.06876 8.40882 24.98 14.4873 -48.2893 0.233384 5.0684 30.9987 -0.296752 -15.2775 -10.5557 -15.8877 -5.13031 14.5157 14.9384 -0.939394 3.60687 3.67933 -1.59522 5.71454 6.06193 -0.320572 -0.452966 -0.564194 -0.320935 -0.458224 -0.561994 -6.45512 -8.65181 -9.67521 0.355771 -13.9221 21.5771 77.0207 0.0647294 53.3476 26.1603 -61.3117 16.3809 18.6321 -24.5547 -25.4484 28.184 10.7294 19.1592 2.71285e-14 2.74571e-15 -10 -1.80759e-15 -1.09332e-15 -10 -1.32417e-31 -4.77083e-15 -1.59028e-15 19.9818 0.871897 2.3964 24 5.96354e-15 1.74931e-14 20 8.74653e-15 -4.77083e-15 -1.32417e-31 -4.77083e-15 -1.59028e-15 20 7.15625e-15 2.8625e-14 24 -1.98785e-15 1.27222e-14 20 0 7.95139e-15 -1.32417e-31 -4.77083e-15 -1.59028e-15 19.9748 -1.02565 -2.81938 24 3.57812e-15 1.59028e-14 20 -1.59028e-15 -2.22639e-14 -1.32417e-31 -4.77083e-15 -1.59028e-15 19.7815 -3.00948 -8.30515 24 2.66371e-14 1.90833e-14 20 -1.59028e-15 1.27222e-14 13.4536 -14.3313 -33.5182 -20.4073 34.1399 -77.8631 27.935 -59.5843 32.4908 -17.6683 -26.011 11.5127 -28.184 10.7294 -19.1592 1.99385e-14 -3.18055e-15 10 -1.88169e-14 -3.18055e-15 10 1.59028e-15 3.18055e-15 7.95139e-16 -19.9818 0.871897 -2.3964 -24 1.27222e-14 -9.54166e-15 -20 9.54166e-15 -0 1.59028e-15 3.18055e-15 7.95139e-16 -20 6.36111e-15 -3.18055e-15 -24 -4.77083e-15 -6.36111e-15 -20 3.18055e-15 1.59028e-14 1.59028e-15 3.18055e-15 7.95139e-16 -19.9748 -1.02565 2.81938 -24 6.36111e-15 -1.59028e-14 -20 -2.38542e-15 -0 1.59028e-15 3.18055e-15 7.95139e-16 -19.7815 -3.00948 8.30515 -24 1.59028e-15 -6.36111e-15 -20 1.03368e-14 3.18055e-15 
365.17 88.179 197.592 24.6802 12.1286 -68.0914 -13.0313 -56.8753 -10.6027 -3.29033 23.0868 -14.6072 9.09514 8.46782 24.9841 14.4916 -48.0565 0.420476 4.97525 31.0876 -0.17024 -15.2378 -10.6251 -15.8913 -5.14893 14.5713 15.0342 -0.936043 3.61851 3.70286 -1.59115 5.72955 6.09867 -0.32054 -0.449695 -0.564194 -0.320903 -0.454973 -0.561994 -6.46068 -8.54307 -9.88101 0.43819 -13.7204 21.4715 77.4308 -0.0459512 53.063 27.5563 -61.1819 18.167 18.583 -24.4814 -25.4325 28.184 10.7294 19.1592 2.29722e-14 -2.50966e-15 -10 -4.52147e-14 0 -10 -0 -4.77083e-15 -0 19.9818 0.871897 2.3964 24 -5.96354e-15 -3.81667e-14 20 -5.56597e-15 -4.13472e-14 -0 -4.77083e-15 -0 20 -1.27222e-14 -6.36111e-15 24 -1.70955e-14 -4.45278e-14 20 -1.43125e-14 -3.97569e-14 -0 -4.77083e-15 -0 19.9748 -1.02565 -2.81938 24 3.97569e-15 -3.81667e-14 20 3.18055e-15 -2.8625e-14 -0 -4.77083e-15 -0 19.7815 -3.00948 -8.30515 24 -7.95139e-16 -1.90833e-14 20 -7.95139e-15 -1.90833e-14 13.3716 -14.2453 -33.5617 -20.2542 34.2183 -77.8902 27.4204 -58.9188 31.9714 -17.5592 -25.9984 11.5547 -28.184 10.7294 -19.1592 1.29185e-14 0 10 -1.67089e-14 3.18055e-15 10 -4.41391e-32 -3.18055e-15 -7.95139e-16 -19.9818 0.871897 -2.3964 -24 7.95139e-15 1.59028e-14 -20 3.18055e-15 -0 -4.41391e-32 -3.18055e-15 -7.95139e-16 -20 -3.18055e-15 6.36111e-15 -24 -7.95139e-15 9.54166e-15 -20 -4.77083e-15 2.22639e-14 -4.41391e-32 -3.18055e-15 -7.95139e-16 -19.9748 -1.02565 2.81938 -24 -1.59028e-15 3.18055e-15 -20 1.59028e-15 3.18055e-15 -4.41391e-32 -3.18055e-15 -7.95139e-16 -19.7815 -3.00948 8.30515 -24 -9.54166e-15 -3.18055e-15 -20 2.38542e-15 6.36111e-15 
365.201 88.179 197.672 24.5918 11.9556 -68.2922 -12.8815 -56.7277 -10.3724 -3.33636 22.9861 -14.4702 9.1245 8.52827 25.0035 14.5089 -47.8751 0.583404 4.87836 31.17 -0.0589956 -15.1951 -10.6957 -15.8951 -5.13851 14.5942 15.0985 -0.926233 3.62114 3.72001 -1.58354 5.73093 6.12576 -0.320484 -0.443106 -0.565343 -0.320848 -0.4484 -0.563179 -6.53982 -8.42255 -9.89105 0.52695 -13.5203 21.3539 77.7644 -0.103003 52.7861 29.0865 -61.1431 20.0952 18.5373 -24.4099 -25.4019 28.184 10.7294 19.1592 3.52642e-14 -6.06293e-15 -10 -1.80339e-14 -3.8266e-15 -10 3.18055e-15 4.77083e-15 -3.18055e-15 19.9818 0.871897 2.3964 24 1.43125e-14 -6.36111e-15 20 -7.95139e-16 -2.38542e-14 3.18055e-15 4.77083e-15 -3.18055e-15 20 -7.15625e-15 1.59028e-14 24 1.35174e-14 -9.54166e-15 20 -3.18055e-15 -2.06736e-14 3.18055e-15 4.77083e-15 -3.18055e-15 19.9748 -1.02565 -2.81938 24 -3.97569e-15 -9.54166e-15 20 -6.36111e-15 -2.22639e-14 3.18055e-15 4.77083e-15 -3.18055e-15 19.7815 -3.00948 -8.30515 24 7.55382e-15 -6.36111e-15 20 -6.36111e-15 -6.36111e-15 13.3104 -14.1569 -33.6084 -20.0329 34.3261 -78.0007 27.0314 -58.2642 31.5697 -17.4576 -25.976 11.597 -28.184 10.7294 -19.1592 1.02497e-14 -3.18055e-15 10 -1.50265e-14 -6.36111e-15 10 1.59028e-15 -9.54166e-15 2.38542e-15 -19.9818 0.871897 -2.3964 -24 9.54166e-15 3.18055e-15 -20 7.95139e-15 -6.36111e-15 1.59028e-15 -9.54166e-15 2.38542e-15 -20 0 -7.95139e-15 -24 -6.36111e-15 -3.18055e-15 -20 7.95139e-16 1.27222e-14 1.59028e-15 -9.54166e-15 2.38542e-15 -19.9748 -1.02565 2.81938 -24 6.36111e-15 -1.27222e-14 -20 -7.95139e-16 -3.18055e-15 1.59028e-15 -9.54166e-15 2.38542e-15 -19.7815 -3.00948 8.30515 -24 1.59028e-15 -3.18055e-15 -20 5.56597e-15 -3.18055e-15 
365.235 88.1829 197.763 24.4828 11.7119 -68.5736 -12.6601 -56.5515 -9.98483 -3.37572 22.8792 -14.341 9.14916 8.58962 25.0307 14.5139 -47.6225 0.821587 4.79454 31.2464 0.0586443 -15.1489 -10.768 -15.899 -5.16605 14.6352 15.2036 -0.927379 3.62882 3.74544 -1.58889 5.74092 6.1651 -0.320457 -0.439152 -0.566832 -0.320821 -0.444465 -0.564687 -6.62571 -8.29769 -9.89604 0.588775 -13.3214 21.2468 78.1477 -0.168715 52.4756 30.7072 -61.0341 22.1348 18.475 -24.3665 -25.3594 28.184 10.7294 19.1592 -5.15324e-14 1.22501e-14 -10 -7.98642e-16 4.96962e-17 -10 6.36111e-15 -1.59028e-15 -0 19.9818 0.871897 2.3964 24 9.54166e-15 -1.59028e-15 20 -3.97569e-15 2.70347e-14 6.36111e-15 -1.59028e-15 -0 20 -1.59028e-15 -0 24 1.19271e-15 1.59028e-15 20 1.11319e-14 2.70347e-14 6.36111e-15 -1.59028e-15 -0 19.9748 -1.02565 -2.81938 24 9.54166e-15 -6.36111e-15 20 7.95139e-15 1.59028e-14 6.36111e-15 -1.59028e-15 -0 19.7815 -3.00948 -8.30515 24 1.35174e-14 1.90833e-14 20 1.11319e-14 2.8625e-14 13.2443 -14.0626 -33.6535 -19.8719 34.4008 -78.0154 26.4762 -57.5689 31.0103 -17.3593 -25.9524 11.6384 -28.184 10.7294 -19.1592 -2.6688e-15 -3.18055e-15 10 -9.68886e-15 0 10 1.59028e-15 -9.54166e-15 1.59028e-15 -19.9818 0.871897 -2.3964 -24 4.77083e-15 -3.18055e-15 -20 6.36111e-15 -6.36111e-15 1.59028e-15 -9.54166e-15 1.59028e-15 -20 -3.18055e-15 -4.77083e-15 -24 -1.59028e-15 -0 -20 3.97569e-15 1.90833e-14 1.59028e-15 -9.54166e-15 1.59028e-15 -19.9748 -1.02565 2.81938 -24 1.59028e-15 -6.36111e-15 -20 7.95139e-16 -3.18055e-15 1.59028e-15 -9.54166e-15 1.59028e-15 -19.7815 -3.00948 8.30515 -24 -1.59028e-15 -6.36111e-15 -20 7.95139e-16 -9.54166e-15 
365.267 88.1907 197.856 24.4431 11.6061 -68.6986 -12.6377 -56.4416 -9.95627 -3.412 22.7647 -14.2232 9.17632 8.6565 25.071 14.4621 -47.516 0.851684 4.71286 31.3152 0.17516 -15.1091 -10.8444 -15.8986 -5.16998 14.6453 15.2421 -0.934862 3.63086 3.75508 -1.58854 5.74173 6.18002 -0.320455 -0.437847 -0.568322 -0.32082 -0.443166 -0.566195 -6.66746 -8.23502 -9.90971 0.702539 -13.2208 21.0925 78.59 -0.268148 52.1454 32.3758 -60.8733 24.2005 18.431 -24.3165 -25.2971 28.184 10.7294 19.1592 1.67226e-14 -7.04443e-15 -10 -3.35671e-14 -6.06293e-15 -10 3.18055e-15 7.95139e-15 6.36111e-15 19.9818 0.871897 2.3964 24 3.18055e-15 -6.36111e-15 20 -8.74653e-15 -3.18055e-15 3.18055e-15 7.95139e-15 6.36111e-15 20 2.38542e-15 2.06736e-14 24 -1.19271e-15 -7.95139e-15 20 1.59028e-15 -7.95139e-15 3.18055e-15 7.95139e-15 6.36111e-15 19.9748 -1.02565 -2.81938 24 5.96354e-15 -1.90833e-14 20 -1.59028e-15 -1.27222e-14 3.18055e-15 7.95139e-15 6.36111e-15 19.7815 -3.00948 -8.30515 24 -3.18055e-15 -0 20 -3.18055e-15 3.18055e-15 13.2743 -14.0764 -33.7171 -19.6385 34.5288 -78.1845 26.1398 -56.8655 30.673 -17.2499 -25.9213 11.6882 -28.184 10.7294 -19.1592 9.68886e-15 0 10 -4.35126e-15 6.36111e-15 10 -0 -6.36111e-15 -0 -19.9818 0.871897 -2.3964 -24 6.36111e-15 6.36111e-15 -20 1.03368e-14 1.27222e-14 -0 -6.36111e-15 -0 -20 3.18055e-15 -0 -24 -6.36111e-15 6.36111e-15 -20 5.56597e-15 3.49861e-14 -0 -6.36111e-15 -0 -19.9748 -1.02565 2.81938 -24 -4.77083e-15 -0 -20 5.56597e-15 1.27222e-14 -0 -6.36111e-15 -0 -19.7815 -3.00948 8.30515 -24 0 -0 -20 -1.59028e-15 9.54166e-15 
365.299 88.2004 197.946 24.3956 11.4765 -68.8454 -12.6306 -56.3234 -9.91029 -3.43936 22.6586 -14.1185 9.2111 8.72576 25.1302 14.4122 -47.3867 0.921432 4.63311 31.3814 0.278009 -15.0713 -10.9317 -15.8919 -5.26949 14.6988 15.3499 -0.955719 3.6478 3.77724 -1.62238 5.76742 6.21304 -0.320456 -0.43672 -0.56989 -0.320821 -0.442045 -0.567782 -6.66755 -8.23994 -9.9019 0.889432 -13.2201 20.8913 79.0819 -0.429286 51.8004 34.2169 -60.7254 26.4179 18.3509 -24.1813 -25.2881 28.184 10.7294 19.1592 2.13128e-14 9.93923e-17 -10 -7.75534e-15 -6.20581e-15 -10 -3.18055e-15 -5.56597e-15 -7.95139e-15 19.9818 0.871897 2.3964 24 7.95139e-16 -4.29375e-14 20 -1.27222e-14 -1.74931e-14 -3.18055e-15 -5.56597e-15 -7.95139e-15 20 -1.19271e-15 -1.74931e-14 24 -1.31198e-14 -4.13472e-14 20 -3.18055e-15 -2.22639e-14 -3.18055e-15 -5.56597e-15 -7.95139e-15 19.9748 -1.02565 -2.81938 24 -1.11319e-14 -5.08889e-14 20 0 -3.97569e-14 -3.18055e-15 -5.56597e-15 -7.95139e-15 19.7815 -3.00948 -8.30515 24 1.43125e-14 -1.90833e-14 20 -9.54166e-15 3.18055e-15 13.4034 -14.2117 -33.816 -19.4631 34.6456 -78.3084 25.7288 -56.0876 30.2663 -17.1457 -25.8901 11.734 -28.184 10.7294 -19.1592 1.34793e-14 -3.18055e-15 10 -1.88169e-14 -3.18055e-15 10 3.18055e-15 -9.54166e-15 1.98785e-15 -19.9818 0.871897 -2.3964 -24 1.59028e-15 9.54166e-15 -20 3.97569e-15 1.27222e-14 3.18055e-15 -9.54166e-15 1.98785e-15 -20 -3.18055e-15 1.11319e-14 -24 0 1.59028e-14 -20 -8.74653e-15 2.22639e-14 3.18055e-15 -9.54166e-15 1.98785e-15 -19.9748 -1.02565 2.81938 -24 1.59028e-15 1.27222e-14 -20 0 -3.18055e-15 3.18055e-15 -9.54166e-15 1.98785e-15 -19.7815 -3.00948 8.30515 -24 -7.95139e-15 9.54166e-15 -20 7.95139e-15 -1.59028e-14 
